<?xml version="1.0" standalone="no"?>
<!DOCTYPE svg PUBLIC "-//W3C//DTD SVG 20010904//EN"
 "http://www.w3.org/TR/2001/REC-SVG-20010904/DTD/svg10.dtd">
<svg version="1.0" xmlns="http://www.w3.org/2000/svg"
 width="960.000000pt" height="960.000000pt" viewBox="0 0 960.000000 960.000000"
 preserveAspectRatio="xMidYMid meet">

<g transform="translate(0.000000,960.000000) scale(0.100000,-0.100000)"
fill="#000000" stroke="none">
<path d="M3607 8863 c-11 -11 -8 -561 3 -568 7 -4 10 93 10 284 0 160 -1 291
-3 291 -2 0 -7 -3 -10 -7z"/>
<path d="M957 8846 c-65 -24 -97 -66 -97 -129 0 -60 35 -97 143 -150 129 -63
161 -112 122 -187 -34 -66 -125 -79 -211 -30 -31 17 -56 26 -59 20 -9 -15 3
-28 46 -50 139 -71 289 5 265 135 -11 55 -52 94 -150 140 -65 31 -96 52 -108
73 -63 106 70 204 192 142 47 -24 50 -24 50 -5 0 38 -127 66 -193 41z"/>
<path d="M3178 8844 c-26 -14 -44 -54 -50 -114 -3 -23 -7 -25 -61 -28 -73 -4
-66 -22 9 -22 l54 0 0 -190 c0 -162 2 -190 15 -190 13 0 15 28 15 190 l0 190
110 0 110 0 0 -189 c0 -116 4 -192 10 -196 7 -4 10 65 10 199 l0 206 -105 1
c-58 1 -111 2 -117 3 -8 0 -14 19 -16 45 -4 60 16 81 80 81 36 0 48 4 48 15 0
20 -75 20 -112 -1z"/>
<path d="M1855 8705 c-22 -8 -55 -31 -72 -51 l-33 -37 0 47 c0 29 -4 45 -10
41 -6 -4 -10 -108 -10 -280 0 -172 4 -276 10 -280 6 -4 10 36 10 112 l0 117
36 -37 c84 -86 217 -65 272 43 38 75 29 202 -20 273 -37 52 -117 75 -183 52z
m134 -42 c38 -29 62 -75 68 -135 7 -70 -11 -132 -51 -175 -28 -31 -40 -37 -87
-40 -102 -9 -164 61 -164 182 0 125 66 202 164 192 24 -3 55 -14 70 -24z"/>
<path d="M2342 8712 c-12 -2 -38 -19 -58 -38 -20 -19 -38 -34 -40 -34 -2 0 -4
16 -4 36 0 21 -4 33 -10 29 -6 -4 -10 -83 -10 -205 0 -122 4 -201 10 -205 6
-4 10 35 10 110 0 147 12 196 61 247 37 39 40 40 89 36 38 -4 50 -2 50 8 0 8
-8 15 -17 15 -10 1 -27 2 -38 3 -11 1 -30 0 -43 -2z"/>
<path d="M2715 8715 c-5 -2 -22 -6 -38 -9 -39 -9 -104 -71 -118 -114 -16 -47
-16 -136 0 -183 14 -44 63 -93 115 -114 49 -21 111 -13 158 18 112 76 112 300
-1 372 -34 22 -94 37 -116 30z m103 -52 c15 -11 37 -37 50 -59 19 -33 22 -51
20 -116 -3 -82 -17 -111 -72 -152 -39 -29 -133 -29 -173 0 -104 76 -93 281 18
338 43 21 121 16 157 -11z"/>
<path d="M3907 8706 c-83 -30 -126 -101 -127 -207 0 -79 16 -123 62 -165 96
-91 253 -52 283 69 10 40 -10 33 -32 -10 -28 -58 -76 -86 -141 -81 -31 3 -64
13 -80 24 -31 23 -72 97 -72 131 l0 23 171 0 172 0 -6 51 c-16 130 -120 205
-230 165z m142 -43 c31 -24 56 -67 65 -110 l6 -33 -160 0 c-176 0 -172 -1
-146 61 16 39 71 95 101 102 37 10 107 -1 134 -20z"/>
<path d="M685 7570 c-4 -6 -11 -8 -16 -5 -5 4 -8 -30 -7 -82 2 -86 2 -87 5
-18 4 76 20 105 58 105 35 0 50 -27 56 -104 l6 -71 1 70 c2 87 -13 115 -63
115 -19 0 -37 -5 -40 -10z"/>
<path d="M862 7573 c-7 -2 -17 -14 -23 -26 -11 -20 -11 -20 16 1 35 28 70 28
89 0 27 -38 20 -48 -34 -48 -37 0 -55 -5 -70 -20 -23 -23 -24 -33 -10 -61 13
-24 75 -26 107 -4 20 14 22 13 26 -2 3 -10 5 14 6 52 1 86 -15 115 -62 114
-18 0 -38 -3 -45 -6z m98 -98 c0 -9 -11 -27 -25 -41 -36 -36 -89 -31 -93 9 -4
32 20 45 81 46 27 1 37 -3 37 -14z"/>
<path d="M1012 7490 l1 -95 6 71 c6 73 21 104 50 104 36 0 46 -18 52 -97 l6
-78 1 71 c2 55 6 75 20 87 45 41 78 7 81 -83 4 -90 11 -89 11 2 0 60 -4 78
-18 91 -23 21 -65 22 -82 2 -11 -13 -14 -13 -27 0 -16 17 -51 19 -73 5 -9 -6
-17 -5 -22 3 -4 7 -7 -31 -6 -83z"/>
<path d="M1292 7557 c-16 -17 -22 -36 -22 -70 0 -59 25 -87 75 -87 22 0 43 8
55 20 22 22 26 40 10 40 -5 0 -10 -7 -10 -15 0 -35 -69 -46 -100 -15 -38 38
-27 50 50 50 67 0 70 1 70 24 0 66 -83 101 -128 53z m95 -9 c40 -37 30 -48
-42 -48 -71 0 -79 9 -43 47 27 29 55 29 85 1z"/>
<path d="M663 7283 c26 -2 67 -2 90 0 23 2 2 3 -48 3 -49 0 -68 -1 -42 -3z"/>
<path d="M863 7283 c26 -2 67 -2 90 0 23 2 2 3 -48 3 -49 0 -68 -1 -42 -3z"/>
<path d="M1063 7283 c26 -2 67 -2 90 0 23 2 2 3 -48 3 -49 0 -68 -1 -42 -3z"/>
<path d="M1263 7283 c26 -2 67 -2 90 0 23 2 2 3 -48 3 -49 0 -68 -1 -42 -3z"/>
<path d="M1463 7283 c26 -2 67 -2 90 0 23 2 2 3 -48 3 -49 0 -68 -1 -42 -3z"/>
<path d="M1663 7283 c26 -2 67 -2 90 0 23 2 2 3 -48 3 -49 0 -68 -1 -42 -3z"/>
<path d="M1863 7283 c26 -2 67 -2 90 0 23 2 2 3 -48 3 -49 0 -68 -1 -42 -3z"/>
<path d="M2063 7283 c26 -2 67 -2 90 0 23 2 2 3 -48 3 -49 0 -68 -1 -42 -3z"/>
<path d="M2263 7283 c26 -2 67 -2 90 0 23 2 2 3 -48 3 -49 0 -68 -1 -42 -3z"/>
<path d="M2473 7283 c26 -2 67 -2 90 0 23 2 2 3 -48 3 -49 0 -68 -1 -42 -3z"/>
<path d="M2673 7283 c26 -2 67 -2 90 0 23 2 2 3 -48 3 -49 0 -68 -1 -42 -3z"/>
<path d="M2873 7283 c26 -2 67 -2 90 0 23 2 2 3 -48 3 -49 0 -68 -1 -42 -3z"/>
<path d="M3073 7283 c26 -2 67 -2 90 0 23 2 2 3 -48 3 -49 0 -68 -1 -42 -3z"/>
<path d="M3273 7283 c26 -2 67 -2 90 0 23 2 2 3 -48 3 -49 0 -68 -1 -42 -3z"/>
<path d="M3473 7283 c26 -2 67 -2 90 0 23 2 2 3 -48 3 -49 0 -68 -1 -42 -3z"/>
<path d="M3673 7283 c26 -2 67 -2 90 0 23 2 2 3 -48 3 -49 0 -68 -1 -42 -3z"/>
<path d="M3873 7283 c26 -2 67 -2 90 0 23 2 2 3 -48 3 -49 0 -68 -1 -42 -3z"/>
<path d="M678 7109 c-10 -5 -18 -17 -18 -24 0 -11 5 -10 20 5 36 36 100 17
100 -31 0 -16 -7 -19 -43 -19 -23 0 -53 -7 -65 -16 -24 -17 -29 -53 -10 -72
17 -17 69 -15 95 3 20 14 22 13 26 -2 3 -10 5 17 6 59 1 57 -3 80 -15 92 -17
18 -70 21 -96 5z m102 -97 c0 -10 -11 -29 -24 -41 -28 -26 -73 -25 -90 2 -16
26 24 57 75 57 31 0 39 -4 39 -18z"/>
<path d="M851 7094 c-28 -35 -28 -97 -1 -124 26 -26 80 -30 108 -8 9 8 12 3
12 -20 0 -21 -7 -36 -22 -46 -32 -22 -55 -20 -83 9 -16 16 -25 19 -25 10 0
-20 40 -45 71 -45 15 0 37 8 50 19 21 16 23 27 25 120 1 55 -2 103 -7 107 -5
3 -9 0 -9 -6 0 -7 -6 -8 -19 0 -36 19 -78 12 -100 -16z m99 -4 c25 -25 27 -86
3 -112 -21 -24 -68 -23 -93 2 -26 26 -26 70 1 104 25 31 61 34 89 6z"/>
<path d="M1042 7097 c-16 -17 -22 -36 -22 -70 0 -59 25 -87 75 -87 22 0 43 8
55 20 22 22 26 40 10 40 -5 0 -10 -7 -10 -15 0 -35 -69 -46 -100 -15 -38 38
-27 50 50 50 67 0 70 1 70 24 0 66 -83 101 -128 53z m95 -9 c40 -37 30 -48
-42 -48 -71 0 -79 9 -43 47 27 29 55 29 85 1z"/>
<path d="M620 6780 c0 -6 34 -10 80 -10 44 0 80 4 80 9 0 5 -36 10 -80 10 -47
0 -80 -3 -80 -9z"/>
<path d="M830 6781 c0 -7 31 -11 81 -11 44 0 78 4 75 9 -8 12 -156 14 -156 2z"/>
<path d="M1030 6780 c0 -6 34 -10 81 -10 51 0 78 4 74 10 -3 6 -40 10 -81 10
-43 0 -74 -4 -74 -10z"/>
<path d="M1230 6781 c0 -7 31 -11 81 -11 44 0 78 4 75 9 -8 12 -156 14 -156 2z"/>
<path d="M1430 6780 c0 -6 34 -10 81 -10 51 0 78 4 74 10 -3 6 -40 10 -81 10
-43 0 -74 -4 -74 -10z"/>
<path d="M1630 6781 c0 -7 31 -11 81 -11 44 0 78 4 75 9 -8 12 -156 14 -156 2z"/>
<path d="M1830 6780 c0 -6 34 -10 81 -10 51 0 78 4 74 10 -3 6 -40 10 -81 10
-43 0 -74 -4 -74 -10z"/>
<path d="M2030 6781 c0 -7 31 -11 81 -11 44 0 78 4 75 9 -8 12 -156 14 -156 2z"/>
<path d="M2230 6780 c0 -6 34 -10 81 -10 51 0 78 4 74 10 -3 6 -40 10 -81 10
-43 0 -74 -4 -74 -10z"/>
<path d="M2434 6779 c-3 -5 31 -9 75 -9 45 0 81 4 81 9 0 12 -148 12 -156 0z"/>
<path d="M2635 6780 c-4 -6 26 -10 82 -10 60 0 83 3 73 10 -20 13 -147 13
-155 0z"/>
<path d="M2834 6779 c-3 -5 31 -9 75 -9 45 0 81 4 81 9 0 12 -148 12 -156 0z"/>
<path d="M3030 6780 c0 -6 36 -10 88 -10 60 0 82 3 72 10 -20 13 -160 13 -160
0z"/>
<path d="M3234 6779 c-3 -5 31 -9 75 -9 45 0 81 4 81 9 0 12 -148 12 -156 0z"/>
<path d="M3435 6780 c-4 -6 26 -10 82 -10 60 0 83 3 73 10 -20 13 -147 13
-155 0z"/>
<path d="M3634 6779 c-3 -5 31 -9 75 -9 50 0 81 4 81 11 0 12 -148 10 -156 -2z"/>
<path d="M3840 6780 c0 -6 33 -10 80 -10 47 0 80 4 80 10 0 6 -33 10 -80 10
-47 0 -80 -4 -80 -10z"/>
<path d="M993 6595 c0 -103 1 -115 6 -57 5 57 10 77 25 88 50 36 79 7 87 -90
l6 -71 1 70 c2 83 -14 115 -56 115 -15 0 -34 -5 -42 -10 -12 -8 -16 -1 -21 38
-3 26 -6 -10 -6 -83z"/>
<path d="M2330 6668 c0 -49 -1 -50 -18 -35 -29 27 -77 22 -102 -10 -28 -35
-24 -115 6 -138 29 -22 104 -18 104 6 0 5 -11 4 -24 -2 -72 -33 -127 59 -75
125 44 56 116 10 106 -69 -3 -22 -1 -49 3 -60 5 -12 9 30 9 108 1 70 -1 127
-4 127 -3 0 -5 -23 -5 -52z"/>
<path d="M1540 6590 c0 -73 4 -120 10 -120 6 0 10 47 10 120 0 73 -4 120 -10
120 -6 0 -10 -47 -10 -120z"/>
<path d="M666 6634 c-32 -31 -16 -55 49 -77 48 -17 64 -39 45 -62 -21 -25 -81
-16 -97 15 -11 22 -13 23 -13 5 0 -31 20 -45 65 -45 46 0 65 13 65 46 0 26
-13 38 -62 53 -20 7 -42 19 -49 28 -11 13 -10 17 6 29 28 20 62 17 79 -8 9
-12 18 -20 21 -17 2 3 -2 15 -11 27 -18 26 -75 30 -98 6z"/>
<path d="M831 6624 c-28 -36 -29 -106 -1 -134 30 -30 95 -27 116 5 9 14 14 28
12 31 -3 2 -13 -7 -22 -21 -35 -53 -116 -17 -116 51 0 38 34 84 61 84 29 0 59
-18 59 -35 0 -8 5 -15 10 -15 16 0 12 18 -10 40 -30 30 -83 27 -109 -6z"/>
<path d="M1183 6628 c-11 -13 -23 -35 -27 -49 -7 -34 11 -86 34 -99 31 -16 79
-11 100 10 28 28 27 98 -1 134 -27 34 -77 36 -106 4z m94 -10 c30 -28 32 -89
3 -118 -33 -33 -82 -25 -104 19 -17 33 -11 69 16 98 27 29 55 29 85 1z"/>
<path d="M1377 6636 c-41 -31 -39 -134 3 -156 32 -17 78 -12 100 12 27 30 27
96 -1 132 -23 29 -71 35 -102 12z m90 -18 c48 -45 19 -138 -42 -138 -60 0 -90
96 -43 140 28 26 56 25 85 -2z"/>
<path d="M1731 6624 c-40 -50 -16 -142 37 -145 31 -2 57 3 70 13 9 8 12 3 12
-20 0 -21 -7 -36 -22 -46 -32 -22 -55 -20 -83 9 -16 16 -25 19 -25 10 0 -20
40 -45 71 -45 15 0 37 8 50 19 21 17 23 28 25 120 2 59 -1 101 -6 101 -12 0
-13 -11 -10 -68 2 -52 -20 -82 -61 -82 -60 0 -89 72 -48 124 22 28 48 33 80
16 11 -6 19 -7 19 -1 0 12 -25 21 -60 21 -19 0 -36 -9 -49 -26z"/>
<path d="M1912 6560 l1 -95 6 71 c7 79 21 103 60 105 23 2 23 2 4 6 -12 2 -31
0 -42 -6 -14 -8 -21 -8 -24 2 -3 6 -5 -31 -5 -83z"/>
<path d="M2052 6643 c-7 -2 -17 -14 -23 -26 -11 -20 -11 -20 16 1 34 27 59 28
85 2 34 -34 26 -50 -24 -50 -24 0 -52 -3 -61 -6 -24 -9 -37 -51 -25 -75 13
-24 75 -26 107 -4 20 14 22 13 26 -2 3 -10 5 14 6 52 1 86 -15 115 -62 114
-18 0 -38 -3 -45 -6z m98 -98 c0 -49 -98 -87 -119 -46 -19 34 15 59 82 60 27
1 37 -3 37 -14z"/>
<path d="M2402 6627 c-16 -17 -22 -36 -22 -70 0 -59 25 -87 75 -87 35 0 75 28
75 51 0 7 -11 0 -25 -15 -29 -31 -67 -34 -95 -6 -38 38 -27 50 50 50 64 0 70
2 70 21 0 23 -18 60 -34 71 -23 16 -73 8 -94 -15z m98 -9 c35 -38 26 -48 -45
-48 -71 0 -79 9 -43 47 27 29 61 29 88 1z"/>
<path d="M663 6323 c26 -2 67 -2 90 0 23 2 2 3 -48 3 -49 0 -68 -1 -42 -3z"/>
<path d="M868 6323 c23 -2 61 -2 85 0 23 2 4 4 -43 4 -47 0 -66 -2 -42 -4z"/>
<path d="M1068 6323 c23 -2 61 -2 85 0 23 2 4 4 -43 4 -47 0 -66 -2 -42 -4z"/>
<path d="M1268 6323 c23 -2 61 -2 85 0 23 2 4 4 -43 4 -47 0 -66 -2 -42 -4z"/>
<path d="M1468 6323 c23 -2 61 -2 85 0 23 2 4 4 -43 4 -47 0 -66 -2 -42 -4z"/>
<path d="M1668 6323 c23 -2 61 -2 85 0 23 2 4 4 -43 4 -47 0 -66 -2 -42 -4z"/>
<path d="M1868 6323 c23 -2 61 -2 85 0 23 2 4 4 -43 4 -47 0 -66 -2 -42 -4z"/>
<path d="M2068 6323 c23 -2 61 -2 85 0 23 2 4 4 -43 4 -47 0 -66 -2 -42 -4z"/>
<path d="M2268 6323 c23 -2 61 -2 85 0 23 2 4 4 -43 4 -47 0 -66 -2 -42 -4z"/>
<path d="M2473 6323 c26 -2 67 -2 90 0 23 2 2 3 -48 3 -49 0 -68 -1 -42 -3z"/>
<path d="M2673 6323 c26 -2 67 -2 90 0 23 2 2 3 -48 3 -49 0 -68 -1 -42 -3z"/>
<path d="M2873 6323 c26 -2 67 -2 90 0 23 2 2 3 -48 3 -49 0 -68 -1 -42 -3z"/>
<path d="M3073 6323 c26 -2 67 -2 90 0 23 2 2 3 -48 3 -49 0 -68 -1 -42 -3z"/>
<path d="M3273 6323 c26 -2 67 -2 90 0 23 2 2 3 -48 3 -49 0 -68 -1 -42 -3z"/>
<path d="M3473 6323 c26 -2 67 -2 90 0 23 2 2 3 -48 3 -49 0 -68 -1 -42 -3z"/>
<path d="M3673 6323 c26 -2 67 -2 90 0 23 2 2 3 -48 3 -49 0 -68 -1 -42 -3z"/>
<path d="M3878 6323 c23 -2 61 -2 85 0 23 2 4 4 -43 4 -47 0 -66 -2 -42 -4z"/>
<path d="M4078 6323 c23 -2 61 -2 85 0 23 2 4 4 -43 4 -47 0 -66 -2 -42 -4z"/>
<path d="M4278 6323 c23 -2 61 -2 85 0 23 2 4 4 -43 4 -47 0 -66 -2 -42 -4z"/>
<path d="M4478 6323 c23 -2 61 -2 85 0 23 2 4 4 -43 4 -47 0 -66 -2 -42 -4z"/>
<path d="M4678 6323 c23 -2 61 -2 85 0 23 2 4 4 -43 4 -47 0 -66 -2 -42 -4z"/>
<path d="M4878 6323 c23 -2 61 -2 85 0 23 2 4 4 -43 4 -47 0 -66 -2 -42 -4z"/>
<path d="M5078 6323 c23 -2 61 -2 85 0 23 2 4 4 -43 4 -47 0 -66 -2 -42 -4z"/>
<path d="M5278 6323 c23 -2 61 -2 85 0 23 2 4 4 -43 4 -47 0 -66 -2 -42 -4z"/>
<path d="M5483 6323 c26 -2 67 -2 90 0 23 2 2 3 -48 3 -49 0 -68 -1 -42 -3z"/>
<path d="M5683 6323 c26 -2 67 -2 90 0 23 2 2 3 -48 3 -49 0 -68 -1 -42 -3z"/>
<path d="M5883 6323 c26 -2 67 -2 90 0 23 2 2 3 -48 3 -49 0 -68 -1 -42 -3z"/>
<path d="M6083 6323 c26 -2 67 -2 90 0 23 2 2 3 -48 3 -49 0 -68 -1 -42 -3z"/>
<path d="M6283 6323 c26 -2 67 -2 90 0 23 2 2 3 -48 3 -49 0 -68 -1 -42 -3z"/>
<path d="M662 6135 c-1 -76 2 -124 7 -116 6 9 11 10 15 2 12 -18 81 -13 100 8
25 28 31 83 12 119 -19 37 -57 50 -97 35 -28 -11 -28 -11 -32 36 -2 25 -4 -12
-5 -84z m93 39 c25 -10 48 -62 40 -93 -15 -60 -78 -83 -109 -39 -45 64 3 157
69 132z"/>
<path d="M1420 6208 c0 -49 -1 -50 -18 -35 -29 26 -77 22 -101 -9 -46 -59 -13
-154 54 -154 18 0 40 7 49 15 13 13 15 13 19 -3 3 -9 5 40 6 111 0 70 -1 127
-4 127 -3 0 -5 -23 -5 -52z m-21 -54 c59 -75 -19 -176 -86 -112 -44 41 -15
138 42 138 14 0 32 -11 44 -26z"/>
<path d="M850 6129 c0 -68 4 -118 9 -115 13 8 14 236 1 236 -6 0 -10 -44 -10
-121z"/>
<path d="M1611 6218 c-1 -21 -6 -28 -21 -28 -11 0 -20 -4 -20 -10 0 -5 9 -10
20 -10 17 0 19 -8 22 -77 3 -75 4 -78 28 -80 25 -3 25 -3 3 7 -21 8 -23 16
-23 80 0 63 2 70 20 70 11 0 20 5 20 10 0 6 -9 10 -19 10 -14 0 -21 8 -24 28
l-4 27 -2 -27z"/>
<path d="M937 6176 c-42 -32 -40 -133 3 -156 31 -16 78 -12 100 10 30 30 28
109 -3 138 -26 25 -73 28 -100 8z m90 -18 c48 -45 19 -138 -42 -138 -60 0 -90
96 -43 140 28 26 56 25 85 -2z"/>
<path d="M1115 6165 c-32 -31 -34 -91 -4 -129 16 -20 29 -26 59 -26 55 0 84
38 77 100 -9 77 -81 107 -132 55z m94 -2 c12 -10 24 -34 27 -53 12 -76 -70
-121 -115 -64 -28 36 -27 79 4 109 29 29 55 32 84 8z"/>
<path d="M1680 6182 c0 -6 14 -46 30 -88 26 -65 29 -82 20 -107 -12 -36 -5
-50 9 -16 5 13 26 66 46 117 21 51 35 95 33 98 -3 3 -16 -21 -28 -53 -42 -106
-39 -105 -72 -22 -31 77 -38 90 -38 71z"/>
<path d="M1843 6070 c0 -69 3 -106 6 -83 5 35 9 41 21 33 26 -17 79 -11 100
10 14 14 20 33 20 64 0 79 -60 121 -117 81 -20 -14 -22 -13 -26 2 -3 10 -5
-38 -4 -107z m116 84 c42 -53 15 -134 -43 -134 -31 0 -66 43 -66 80 0 36 35
80 65 80 14 0 32 -11 44 -26z"/>
<path d="M2042 6167 c-16 -17 -22 -36 -22 -70 0 -59 25 -87 75 -87 22 0 43 8
55 20 22 22 26 40 10 40 -5 0 -10 -7 -10 -15 0 -35 -69 -46 -100 -15 -38 38
-27 50 50 50 64 0 70 2 70 21 0 23 -18 60 -34 71 -23 16 -73 8 -94 -15z m97
-13 c12 -15 21 -31 21 -35 0 -5 -29 -9 -65 -9 -71 0 -79 9 -43 47 28 30 62 29
87 -3z"/>
<path d="M5670 5900 l0 -120 45 0 c67 0 113 23 130 64 19 45 19 89 0 126 -21
40 -43 50 -114 50 l-61 0 0 -120z m137 95 c13 -9 27 -33 33 -54 22 -84 -32
-151 -122 -151 l-38 0 0 110 0 110 53 0 c31 0 61 -6 74 -15z"/>
<path d="M5902 5898 l2 -123 5 109 6 110 46 -105 c25 -57 49 -103 54 -102 5 0
29 47 55 104 l45 102 6 -109 5 -109 2 123 c1 67 -2 122 -7 122 -4 0 -29 -45
-53 -101 -25 -55 -49 -100 -54 -99 -5 0 -29 46 -53 100 -24 55 -47 100 -52
100 -5 0 -8 -55 -7 -122z"/>
<path d="M6512 5903 l-2 -123 83 2 82 2 -77 3 -77 4 -4 117 -3 117 -2 -122z"/>
<path d="M6714 5900 c0 -69 1 -97 3 -62 2 34 2 90 0 125 -2 34 -3 6 -3 -63z"/>
<path d="M6772 5898 l2 -123 5 112 6 112 70 -100 c38 -55 75 -105 82 -111 10
-8 13 14 11 113 l-2 124 -5 -108 -6 -109 -74 106 c-41 58 -78 106 -83 106 -4
0 -7 -55 -6 -122z"/>
<path d="M7000 5900 l0 -120 88 2 87 2 -80 5 -80 6 -3 53 -3 52 78 2 78 2 -75
5 -75 6 -3 47 -3 47 83 4 83 3 -87 2 -88 2 0 -120z"/>
<path d="M7554 5900 c0 -69 1 -97 3 -62 2 34 2 90 0 125 -2 34 -3 6 -3 -63z"/>
<path d="M7961 5988 c-1 -22 -6 -28 -23 -29 -22 0 -22 -1 -3 -8 17 -7 21 -20
25 -87 5 -75 6 -79 30 -81 l25 -3 -23 12 c-21 10 -23 17 -20 82 3 65 5 71 28
77 l25 7 -27 1 c-21 1 -28 7 -31 29 l-4 27 -2 -27z"/>
<path d="M7635 5950 c-3 -5 -12 -7 -19 -4 -10 4 -14 -13 -15 -75 -1 -46 2 -82
9 -86 6 -4 10 17 10 63 0 74 16 102 57 102 33 0 46 -27 53 -103 l7 -72 2 70
c1 87 -14 115 -64 115 -19 0 -36 -4 -40 -10z"/>
<path d="M7786 5944 c-9 -8 -16 -20 -16 -25 0 -14 38 -49 55 -49 27 0 65 -23
65 -40 0 -46 -67 -55 -99 -14 -13 17 -21 21 -21 12 0 -25 35 -48 71 -48 40 0
54 8 62 35 10 30 -7 48 -60 65 -32 10 -49 21 -51 34 -8 39 55 49 88 14 11 -12
20 -17 20 -11 0 22 -32 43 -65 43 -18 0 -41 -7 -49 -16z"/>
<path d="M8066 5944 c-25 -25 -18 -40 7 -16 32 30 72 29 93 -3 22 -33 11 -45
-40 -45 -28 0 -52 -7 -67 -19 -20 -16 -22 -23 -14 -47 9 -24 17 -30 48 -32 23
-2 48 3 62 12 22 14 24 14 28 -2 3 -9 5 15 6 53 1 90 -14 115 -69 115 -22 0
-45 -7 -54 -16z m114 -88 c0 -24 -51 -66 -81 -66 -40 0 -56 33 -29 60 24 24
110 29 110 6z"/>
<path d="M8244 5939 c-12 -14 -19 -36 -19 -64 0 -56 25 -85 75 -85 20 0 41 5
48 12 6 6 15 9 18 5 12 -12 -7 -57 -31 -73 -28 -18 -57 -12 -85 19 -11 11 -20
15 -20 9 0 -7 9 -21 20 -32 28 -28 75 -26 105 5 23 22 25 31 25 127 0 61 -4
98 -9 89 -6 -10 -13 -11 -29 -2 -33 18 -77 13 -98 -10z m105 -15 c12 -15 21
-37 21 -49 0 -12 -9 -34 -21 -49 -42 -53 -113 -21 -113 51 0 67 73 97 113 47z"/>
<path d="M8422 5870 c1 -92 1 -93 7 -29 7 74 26 105 70 112 25 4 25 4 -4 5
-16 1 -37 -2 -45 -8 -9 -6 -17 -5 -22 3 -4 7 -7 -31 -6 -83z"/>
<path d="M8558 5949 c-10 -5 -18 -17 -18 -24 0 -11 5 -10 20 5 36 36 100 17
100 -31 0 -16 -7 -19 -46 -19 -25 0 -54 -5 -65 -10 -22 -12 -26 -59 -7 -78 17
-17 69 -15 95 3 20 14 22 13 26 -2 3 -10 5 17 6 59 1 57 -3 80 -15 92 -17 18
-70 21 -96 5z m102 -98 c0 -27 -48 -63 -78 -59 -14 2 -30 11 -36 21 -16 26 24
57 75 57 32 0 39 -4 39 -19z"/>
<path d="M8730 5952 c-12 -5 -16 -25 -18 -84 0 -43 3 -80 8 -83 6 -4 10 22 10
64 0 73 13 101 49 101 31 0 41 -22 42 -99 l2 -76 7 73 c8 87 25 111 67 96 27
-9 28 -13 34 -89 l5 -80 2 81 c2 89 -5 104 -53 104 -17 0 -36 -5 -43 -12 -9
-9 -15 -9 -24 0 -13 13 -63 15 -88 4z"/>
<path d="M6307 5924 c-16 -16 -7 -44 14 -44 15 0 20 5 17 22 -3 22 -19 33 -31
22z"/>
<path d="M7337 5924 c-16 -16 -7 -44 14 -44 15 0 20 5 17 22 -3 22 -19 33 -31
22z"/>
<path d="M2530 5880 l-85 -6 88 -2 c52 -1 87 2 87 8 0 6 -1 9 -2 8 -2 -1 -41
-5 -88 -8z"/>
<path d="M2662 5878 c-9 -4 24 -6 73 -6 92 1 91 5 -3 10 -29 2 -61 0 -70 -4z"/>
<path d="M2930 5880 l-85 -6 88 -2 c52 -1 87 2 87 8 0 6 -1 9 -2 8 -2 -1 -41
-5 -88 -8z"/>
<path d="M3062 5878 c-9 -4 24 -6 73 -6 92 1 91 5 -3 10 -29 2 -61 0 -70 -4z"/>
<path d="M3330 5880 l-85 -6 88 -2 c52 -1 87 2 87 8 0 6 -1 9 -2 8 -2 -1 -41
-5 -88 -8z"/>
<path d="M3462 5878 c-9 -4 24 -6 73 -6 92 1 91 5 -3 10 -29 2 -61 0 -70 -4z"/>
<path d="M3730 5880 l-85 -6 88 -2 c52 -1 87 2 87 8 0 6 -1 9 -2 8 -2 -1 -41
-5 -88 -8z"/>
<path d="M683 5873 c26 -2 67 -2 90 0 23 2 2 3 -48 3 -49 0 -68 -1 -42 -3z"/>
<path d="M888 5873 c23 -2 61 -2 85 0 23 2 4 4 -43 4 -47 0 -66 -2 -42 -4z"/>
<path d="M1088 5873 c23 -2 61 -2 85 0 23 2 4 4 -43 4 -47 0 -66 -2 -42 -4z"/>
<path d="M1288 5873 c23 -2 61 -2 85 0 23 2 4 4 -43 4 -47 0 -66 -2 -42 -4z"/>
<path d="M1488 5873 c23 -2 61 -2 85 0 23 2 4 4 -43 4 -47 0 -66 -2 -42 -4z"/>
<path d="M1688 5873 c23 -2 61 -2 85 0 23 2 4 4 -43 4 -47 0 -66 -2 -42 -4z"/>
<path d="M1888 5873 c23 -2 61 -2 85 0 23 2 4 4 -43 4 -47 0 -66 -2 -42 -4z"/>
<path d="M2088 5873 c23 -2 61 -2 85 0 23 2 4 4 -43 4 -47 0 -66 -2 -42 -4z"/>
<path d="M2288 5873 c23 -2 61 -2 85 0 23 2 4 4 -43 4 -47 0 -66 -2 -42 -4z"/>
<path d="M3898 5873 c23 -2 61 -2 85 0 23 2 4 4 -43 4 -47 0 -66 -2 -42 -4z"/>
<path d="M3398 5265 l41 -58 -32 -44 c-55 -74 -60 -83 -50 -83 5 0 27 25 48
55 20 30 40 55 44 55 3 0 24 -25 45 -55 22 -30 44 -55 49 -55 5 0 -2 15 -15
33 -13 17 -35 46 -48 64 l-23 32 33 43 c19 24 38 49 43 56 6 7 6 12 0 12 -5 0
-26 -23 -47 -51 l-38 -51 -34 48 c-19 27 -40 51 -46 53 -7 2 7 -22 30 -54z"/>
<path d="M4357 5256 c-5 -12 -11 -13 -35 -4 -16 6 -41 8 -56 4 -52 -13 -70
-111 -28 -158 18 -21 82 -24 100 -6 10 10 14 10 21 0 4 -7 8 21 8 63 1 45 -3
75 -9 75 -6 0 -5 6 2 15 7 9 11 18 8 21 -3 3 -8 -2 -11 -10z m-27 -26 c25 -25
27 -95 3 -122 -20 -22 -61 -23 -85 -1 -42 38 -12 143 42 143 11 0 29 -9 40
-20z"/>
<path d="M640 5253 c-1 -15 55 -173 60 -173 4 0 16 32 29 70 12 39 24 70 26
70 3 0 14 -31 26 -70 11 -38 24 -70 28 -70 9 0 64 170 58 176 -3 3 -15 -25
-27 -63 -13 -37 -25 -72 -28 -77 -2 -5 -16 26 -29 69 -14 43 -28 73 -32 69 -4
-5 -16 -37 -26 -71 -10 -35 -21 -63 -25 -63 -3 0 -16 32 -29 70 -20 63 -30 84
-31 63z"/>
<path d="M915 5235 c-32 -31 -34 -91 -4 -129 16 -20 29 -26 59 -26 55 0 84 38
77 100 -9 77 -81 107 -132 55z m94 -2 c12 -10 24 -34 27 -53 12 -76 -70 -121
-115 -64 -28 36 -27 79 4 109 29 29 55 32 84 8z"/>
<path d="M1108 5253 c-16 -4 -18 -16 -16 -91 2 -87 2 -87 5 -17 4 72 20 105
53 105 31 0 40 -23 40 -98 0 -46 4 -71 10 -67 6 3 10 37 10 75 0 60 3 71 21
81 16 8 28 8 45 0 21 -9 23 -18 27 -88 l3 -78 2 81 c1 51 -2 84 -10 92 -17 17
-64 15 -81 -3 -13 -13 -16 -13 -27 0 -12 14 -46 18 -82 8z"/>
<path d="M1372 5244 c-12 -8 -22 -20 -22 -25 0 -6 12 -1 26 10 33 26 66 27 87
3 32 -36 22 -52 -33 -52 -37 0 -55 -5 -70 -20 -23 -23 -24 -33 -10 -61 13 -24
75 -26 107 -4 20 14 22 13 26 -2 3 -10 5 14 6 52 1 86 -14 115 -62 115 -18 0
-43 -7 -55 -16z m108 -89 c0 -9 -11 -27 -25 -41 -36 -36 -89 -31 -93 9 -4 32
20 45 81 46 27 1 37 -3 37 -14z"/>
<path d="M1560 5251 c-8 -6 -18 -7 -22 -5 -4 3 -7 -34 -6 -83 l1 -88 6 73 c6
75 22 102 60 102 36 -1 46 -19 52 -97 l6 -78 1 77 c2 58 -2 80 -14 92 -17 18
-61 21 -84 7z"/>
<path d="M1835 5235 c-32 -31 -34 -91 -4 -129 16 -20 29 -26 59 -26 55 0 84
38 77 100 -9 77 -81 107 -132 55z m94 -2 c12 -10 24 -34 27 -53 12 -76 -70
-121 -115 -64 -28 36 -27 79 4 109 29 29 55 32 84 8z"/>
<path d="M2002 5170 c1 -92 1 -93 7 -29 7 74 26 105 70 112 24 4 24 4 -4 6
-17 0 -37 -5 -43 -11 -10 -10 -15 -10 -22 2 -7 10 -9 -17 -8 -80z"/>
<path d="M2255 5250 c-4 -6 -11 -8 -16 -5 -5 4 -8 -30 -7 -82 2 -86 2 -87 5
-18 4 72 20 105 53 105 31 0 40 -23 40 -97 0 -42 4 -73 10 -73 6 0 10 32 10
75 0 66 2 76 21 86 16 8 28 8 45 0 21 -9 23 -18 27 -88 l3 -78 2 81 c1 51 -2
84 -10 92 -17 17 -64 15 -81 -3 -13 -13 -16 -13 -27 0 -14 17 -66 20 -75 5z"/>
<path d="M2518 5249 c-10 -5 -18 -17 -18 -24 0 -11 5 -10 20 5 36 36 100 17
100 -31 0 -16 -7 -19 -43 -19 -23 0 -53 -7 -65 -16 -24 -17 -29 -53 -10 -72
17 -17 69 -15 95 3 20 14 22 13 26 -2 3 -10 5 17 6 59 1 57 -3 80 -15 92 -17
18 -70 21 -96 5z m102 -97 c0 -10 -11 -29 -24 -41 -28 -26 -73 -25 -90 2 -16
26 24 57 75 57 31 0 39 -4 39 -18z"/>
<path d="M2710 5251 c-8 -6 -18 -7 -22 -5 -4 3 -7 -34 -6 -83 2 -85 2 -86 5
-18 3 56 8 73 24 88 51 42 82 12 90 -87 l6 -71 1 70 c2 83 -14 115 -56 115
-15 0 -34 -4 -42 -9z"/>
<path d="M2975 5235 c-32 -31 -34 -91 -4 -129 16 -20 29 -26 58 -26 44 0 68
21 77 68 18 89 -71 148 -131 87z m93 -2 c12 -10 24 -34 27 -53 13 -76 -69
-121 -114 -64 -28 36 -27 79 4 109 28 29 55 32 83 8z"/>
<path d="M3152 5170 l1 -95 6 70 c7 83 12 92 54 104 28 8 29 9 7 10 -14 0 -32
-3 -40 -9 -9 -6 -17 -5 -22 3 -4 7 -7 -31 -6 -83z"/>
<path d="M3707 5248 c-36 -28 -43 -99 -14 -137 21 -25 56 -32 92 -16 32 13 35
13 35 -4 0 -10 -10 -31 -21 -46 -18 -22 -27 -26 -53 -21 -17 4 -39 16 -48 29
-10 12 -18 16 -18 10 0 -7 9 -22 20 -33 28 -28 81 -26 108 3 20 21 22 34 21
128 0 57 -4 96 -8 86 -6 -17 -8 -17 -20 -3 -16 19 -70 21 -94 4z m92 -24 c24
-30 26 -55 10 -87 -15 -28 -28 -37 -58 -37 -38 0 -61 28 -61 72 0 72 68 104
109 52z"/>
<path d="M3885 5235 c-32 -31 -34 -91 -4 -129 35 -45 129 -28 129 24 0 7 -9 1
-21 -14 -13 -17 -30 -26 -49 -26 -27 0 -70 38 -70 61 0 5 34 9 76 9 l77 0 -7
33 c-13 65 -85 89 -131 42z m92 0 c11 -8 23 -24 26 -35 5 -19 1 -20 -63 -20
-64 0 -68 1 -63 20 6 23 40 50 63 50 9 0 25 -7 37 -15z"/>
<path d="M4075 5250 c-4 -6 -11 -8 -16 -5 -5 4 -8 -30 -7 -82 2 -85 2 -86 5
-18 3 56 8 73 24 88 51 42 82 12 90 -87 l6 -71 1 70 c2 87 -13 115 -63 115
-19 0 -37 -5 -40 -10z"/>
<path d="M4422 5237 c-16 -17 -22 -36 -22 -70 0 -59 25 -87 75 -87 22 0 43 8
55 20 22 22 26 40 10 40 -5 0 -10 -7 -10 -15 0 -35 -69 -46 -100 -15 -38 38
-27 50 50 50 67 0 70 1 70 24 0 66 -83 101 -128 53z m96 -7 c40 -37 29 -50
-43 -50 -71 0 -79 9 -43 47 27 28 57 29 86 3z"/>
<path d="M4582 5170 c1 -92 1 -93 7 -29 7 74 26 105 70 112 24 4 24 4 -4 6
-17 0 -37 -5 -43 -11 -10 -10 -15 -10 -22 2 -7 10 -9 -17 -8 -80z"/>
<path d="M1320 4348 c0 -49 -1 -50 -18 -35 -29 26 -77 22 -101 -9 -46 -59 -13
-154 54 -154 18 0 40 7 49 15 13 13 15 13 19 -3 3 -9 5 40 6 111 0 70 -1 127
-4 127 -3 0 -5 -23 -5 -52z m-21 -54 c30 -39 24 -102 -13 -126 -38 -26 -96 18
-96 72 0 36 35 80 65 80 14 0 32 -11 44 -26z"/>
<path d="M685 4320 c-4 -6 -11 -8 -16 -5 -5 4 -8 -30 -7 -82 2 -86 2 -87 5
-18 4 72 20 105 53 105 31 0 40 -23 40 -97 0 -42 4 -73 10 -73 6 0 10 32 10
75 0 66 2 76 21 86 16 8 28 8 45 0 21 -9 23 -18 27 -88 l3 -78 2 81 c1 51 -2
84 -10 92 -17 17 -64 15 -81 -3 -13 -13 -16 -13 -27 0 -14 17 -66 20 -75 5z"/>
<path d="M910 4321 c0 -7 14 -46 31 -87 27 -64 29 -78 20 -106 -13 -37 -6 -52
8 -17 5 13 26 66 46 117 21 51 35 95 33 98 -3 3 -16 -21 -28 -53 -42 -106 -39
-105 -72 -22 -31 78 -38 90 -38 70z"/>
<path d="M1372 4240 c1 -92 1 -93 7 -29 7 74 26 105 70 112 24 4 24 4 -4 6
-17 0 -37 -5 -43 -11 -10 -10 -15 -10 -22 2 -7 10 -9 -17 -8 -80z"/>
<path d="M1503 4308 c-19 -21 -27 -53 -24 -100 2 -30 38 -58 76 -58 22 0 43 8
55 20 22 22 26 40 10 40 -5 0 -10 -7 -10 -15 0 -35 -69 -46 -100 -15 -38 38
-27 50 50 50 64 0 70 2 70 21 0 23 -18 60 -34 71 -23 16 -73 8 -93 -14z m97
-10 c35 -38 26 -48 -45 -48 -71 0 -79 9 -43 47 27 29 61 29 88 1z"/>
<path d="M1688 4319 c-10 -5 -18 -17 -18 -24 0 -11 5 -10 20 5 36 36 100 17
100 -31 0 -16 -7 -19 -43 -19 -23 0 -53 -7 -65 -16 -24 -17 -29 -53 -10 -72
18 -18 83 -15 99 4 12 14 14 14 20 -3 4 -10 8 16 8 59 1 57 -3 81 -15 92 -17
18 -70 21 -96 5z m102 -97 c0 -10 -11 -29 -24 -41 -28 -26 -73 -25 -90 2 -16
26 24 57 75 57 31 0 39 -4 39 -18z"/>
<path d="M1842 4240 l1 -95 6 73 c5 57 10 77 25 88 48 34 70 11 77 -83 l6 -78
1 71 c2 55 6 75 20 87 45 41 75 10 83 -87 l6 -71 1 76 c2 62 -1 79 -16 92 -23
21 -65 22 -82 2 -11 -13 -14 -13 -27 0 -17 18 -69 20 -79 4 -4 -8 -9 -7 -15 2
-5 8 -8 -25 -7 -81z"/>
<path d="M640 4030 c0 -6 35 -10 85 -10 50 0 85 4 85 10 0 6 -35 10 -85 10
-50 0 -85 -4 -85 -10z"/>
<path d="M850 4030 c0 -6 33 -10 80 -10 47 0 80 4 80 10 0 6 -33 10 -80 10
-47 0 -80 -4 -80 -10z"/>
<path d="M1050 4029 c0 -5 36 -9 80 -9 47 0 80 4 80 10 0 6 -32 10 -80 9 -44
-1 -80 -5 -80 -10z"/>
<path d="M1250 4030 c0 -6 33 -10 80 -10 47 0 80 4 80 10 0 6 -33 10 -80 10
-47 0 -80 -4 -80 -10z"/>
<path d="M1450 4029 c0 -5 36 -9 80 -9 47 0 80 4 80 10 0 6 -32 10 -80 9 -44
-1 -80 -5 -80 -10z"/>
<path d="M1650 4030 c0 -6 33 -10 80 -10 47 0 80 4 80 10 0 6 -33 10 -80 10
-47 0 -80 -4 -80 -10z"/>
<path d="M1850 4029 c0 -5 36 -9 80 -9 47 0 80 4 80 10 0 6 -32 10 -80 9 -44
-1 -80 -5 -80 -10z"/>
<path d="M2050 4030 c0 -6 33 -10 80 -10 47 0 80 4 80 10 0 6 -33 10 -80 10
-47 0 -80 -4 -80 -10z"/>
<path d="M2250 4029 c0 -5 36 -9 80 -9 47 0 80 4 80 10 0 6 -32 10 -80 9 -44
-1 -80 -5 -80 -10z"/>
<path d="M2450 4030 c0 -6 34 -10 85 -10 47 0 85 4 85 9 0 5 -38 9 -85 10 -52
1 -85 -2 -85 -9z"/>
<path d="M2650 4030 c0 -6 35 -10 85 -10 50 0 85 4 85 10 0 6 -35 10 -85 10
-50 0 -85 -4 -85 -10z"/>
<path d="M2850 4030 c0 -6 34 -10 85 -10 47 0 85 4 85 9 0 5 -38 9 -85 10 -52
1 -85 -2 -85 -9z"/>
<path d="M3050 4030 c0 -6 35 -10 85 -10 50 0 85 4 85 10 0 6 -35 10 -85 10
-50 0 -85 -4 -85 -10z"/>
<path d="M3250 4030 c0 -6 34 -10 85 -10 47 0 85 4 85 9 0 5 -38 9 -85 10 -52
1 -85 -2 -85 -9z"/>
<path d="M3450 4030 c0 -6 35 -10 85 -10 50 0 85 4 85 10 0 6 -35 10 -85 10
-50 0 -85 -4 -85 -10z"/>
<path d="M3650 4030 c0 -6 34 -10 85 -10 47 0 85 4 85 9 0 5 -38 9 -85 10 -52
1 -85 -2 -85 -9z"/>
<path d="M3860 4029 c0 -5 36 -9 80 -9 49 0 80 4 80 10 0 7 -30 10 -80 9 -44
-1 -80 -6 -80 -10z"/>
<path d="M4060 4030 c0 -6 31 -10 80 -10 44 0 80 4 80 8 0 5 -36 9 -80 11 -51
1 -80 -2 -80 -9z"/>
<path d="M4260 4029 c0 -5 36 -9 80 -9 49 0 80 4 80 10 0 7 -30 10 -80 9 -44
-1 -80 -6 -80 -10z"/>
<path d="M4460 4030 c0 -6 31 -10 80 -10 44 0 80 4 80 8 0 5 -36 9 -80 11 -51
1 -80 -2 -80 -9z"/>
<path d="M4660 4029 c0 -5 36 -9 80 -9 49 0 80 4 80 10 0 7 -30 10 -80 9 -44
-1 -80 -6 -80 -10z"/>
<path d="M4860 4030 c0 -6 31 -10 80 -10 44 0 80 4 80 8 0 5 -36 9 -80 11 -51
1 -80 -2 -80 -9z"/>
<path d="M5060 4030 c0 -6 33 -10 80 -10 47 0 80 4 80 10 0 6 -33 10 -80 10
-47 0 -80 -4 -80 -10z"/>
<path d="M5260 4030 c0 -6 33 -10 80 -10 47 0 80 4 80 10 0 6 -33 10 -80 10
-47 0 -80 -4 -80 -10z"/>
<path d="M1192 3810 c-1 -73 2 -119 7 -111 6 9 11 10 15 2 4 -6 25 -11 46 -11
68 0 101 71 65 140 -18 35 -57 48 -96 33 -27 -11 -28 -10 -32 31 -2 22 -4 -15
-5 -84z m93 44 c25 -10 48 -62 40 -93 -15 -60 -78 -83 -109 -39 -45 64 3 157
69 132z"/>
<path d="M1683 3810 c0 -102 1 -112 6 -52 5 57 10 77 25 88 50 36 79 7 87 -90
l6 -71 1 70 c2 83 -14 115 -56 115 -15 0 -34 -5 -42 -10 -12 -8 -16 -2 -21 33
-3 23 -6 -14 -6 -83z"/>
<path d="M1380 3910 c0 -5 5 -10 10 -10 6 0 10 5 10 10 0 6 -4 10 -10 10 -5 0
-10 -4 -10 -10z"/>
<path d="M1591 3898 c-1 -26 -4 -28 -48 -28 -27 0 -55 -4 -63 -10 -9 -6 -17
-5 -22 3 -4 7 -7 -31 -6 -83 l1 -95 6 71 c8 91 20 106 80 101 l46 -4 5 -79 c5
-75 6 -79 30 -81 25 -3 25 -3 3 7 -21 8 -23 16 -23 80 0 63 2 70 20 70 11 0
20 5 20 10 0 6 -9 10 -19 10 -14 0 -21 8 -24 28 l-4 27 -2 -27z"/>
<path d="M1990 3859 c0 -19 -1 -19 -22 -5 -47 33 -116 7 -120 -46 -3 -47 4
-84 19 -100 18 -20 88 -25 98 -7 4 6 13 8 20 5 9 -3 13 17 14 85 1 49 -1 89
-4 89 -3 0 -5 -9 -5 -21z m-30 -19 c25 -25 27 -95 3 -122 -20 -22 -61 -23 -85
-1 -42 38 -12 143 42 143 11 0 29 -9 40 -20z"/>
<path d="M685 3860 c-4 -6 -11 -8 -16 -5 -5 4 -8 -30 -7 -82 2 -86 2 -87 5
-18 4 72 20 105 53 105 31 0 40 -23 40 -97 0 -40 4 -73 8 -73 5 0 9 32 9 72 1
75 14 98 54 98 28 0 38 -23 42 -100 l3 -75 2 80 c1 52 -2 85 -10 93 -17 17
-64 15 -81 -3 -13 -13 -16 -13 -27 0 -14 17 -66 20 -75 5z"/>
<path d="M910 3861 c0 -7 14 -46 31 -87 27 -64 29 -78 20 -106 -13 -37 -6 -52
8 -17 5 13 26 66 46 117 21 51 35 95 33 98 -3 3 -16 -21 -28 -53 -42 -106 -40
-105 -71 -24 -29 75 -39 94 -39 72z"/>
<path d="M1384 3780 c0 -52 1 -74 3 -47 2 26 2 68 0 95 -2 26 -3 4 -3 -48z"/>
<path d="M2058 3859 c-10 -5 -18 -17 -18 -24 0 -11 5 -10 20 5 36 36 100 17
100 -31 0 -16 -7 -19 -43 -19 -23 0 -53 -7 -65 -16 -24 -17 -29 -53 -10 -72
18 -18 83 -15 99 4 12 14 14 14 20 -3 4 -10 8 16 8 59 1 57 -3 81 -15 92 -17
18 -70 21 -96 5z m102 -97 c0 -10 -11 -29 -24 -41 -28 -26 -73 -25 -90 2 -16
26 24 57 75 57 31 0 39 -4 39 -18z"/>
<path d="M2190 3866 c0 -2 15 -41 34 -86 33 -77 34 -83 20 -115 -8 -19 -11
-35 -6 -35 4 0 28 52 54 115 25 63 42 115 38 115 -5 0 -21 -31 -36 -70 -15
-38 -28 -70 -30 -70 -1 0 -15 32 -30 71 -23 59 -44 95 -44 75z"/>
<path d="M630 3560 c0 -6 35 -10 85 -10 50 0 85 4 85 10 0 6 -35 10 -85 10
-50 0 -85 -4 -85 -10z"/>
<path d="M840 3560 c0 -6 31 -10 80 -10 44 0 80 4 80 9 0 4 -36 9 -80 10 -50
1 -80 -2 -80 -9z"/>
<path d="M1040 3559 c0 -5 36 -9 80 -9 44 0 80 4 80 9 0 6 -36 10 -80 9 -44 0
-80 -4 -80 -9z"/>
<path d="M1240 3558 c0 -5 36 -8 80 -8 44 0 80 3 80 8 0 4 -36 7 -80 7 -44 0
-80 -3 -80 -7z"/>
<path d="M1440 3560 c0 -6 33 -10 80 -10 47 0 80 4 80 10 0 6 -33 10 -80 10
-47 0 -80 -4 -80 -10z"/>
<path d="M1640 3558 c0 -5 36 -8 80 -8 44 0 80 3 80 8 0 4 -36 7 -80 7 -44 0
-80 -3 -80 -7z"/>
<path d="M1840 3558 c0 -4 36 -8 80 -8 44 0 80 4 80 10 0 5 -35 8 -80 7 -44
-1 -80 -5 -80 -9z"/>
<path d="M2040 3558 c0 -5 36 -8 80 -8 44 0 80 3 80 8 0 4 -36 7 -80 7 -44 0
-80 -3 -80 -7z"/>
<path d="M2240 3559 c0 -5 36 -9 80 -9 44 0 80 4 80 9 0 6 -36 10 -80 9 -44 0
-80 -4 -80 -9z"/>
<path d="M2440 3558 c0 -5 38 -8 85 -8 47 0 85 3 85 8 0 4 -38 7 -85 7 -47 0
-85 -3 -85 -7z"/>
<path d="M2640 3560 c0 -6 34 -10 85 -10 47 0 85 3 85 8 0 4 -38 8 -85 10 -52
1 -85 -2 -85 -8z"/>
<path d="M2840 3558 c0 -5 38 -8 85 -8 47 0 85 3 85 8 0 4 -38 7 -85 7 -47 0
-85 -3 -85 -7z"/>
<path d="M3040 3560 c0 -6 35 -10 85 -10 50 0 85 4 85 10 0 6 -35 10 -85 10
-50 0 -85 -4 -85 -10z"/>
<path d="M3240 3558 c0 -5 38 -8 85 -8 47 0 85 3 85 8 0 4 -38 7 -85 7 -47 0
-85 -3 -85 -7z"/>
<path d="M3440 3560 c0 -6 34 -10 85 -10 47 0 85 3 85 8 0 4 -38 8 -85 10 -52
1 -85 -2 -85 -8z"/>
<path d="M3640 3558 c0 -5 38 -8 85 -8 47 0 85 3 85 8 0 4 -38 7 -85 7 -47 0
-85 -3 -85 -7z"/>
<path d="M3850 3559 c0 -5 36 -9 80 -9 49 0 80 4 80 10 0 7 -30 10 -80 9 -44
-1 -80 -6 -80 -10z"/>
<path d="M4050 3558 c0 -5 36 -8 80 -8 44 0 80 3 80 8 0 4 -36 7 -80 7 -44 0
-80 -3 -80 -7z"/>
<path d="M4250 3559 c0 -5 36 -9 80 -9 44 0 80 3 80 8 0 4 -36 8 -80 8 -44 1
-80 -2 -80 -7z"/>
<path d="M4450 3558 c0 -5 36 -8 80 -8 44 0 80 3 80 8 0 4 -36 7 -80 7 -44 0
-80 -3 -80 -7z"/>
<path d="M4650 3559 c0 -5 36 -9 80 -9 49 0 80 4 80 10 0 7 -30 10 -80 9 -44
-1 -80 -6 -80 -10z"/>
<path d="M4850 3558 c0 -5 36 -8 80 -8 44 0 80 4 80 8 0 4 -36 8 -80 7 -44 0
-80 -3 -80 -7z"/>
<path d="M5050 3560 c0 -6 33 -10 80 -10 47 0 80 4 80 10 0 6 -33 10 -80 10
-47 0 -80 -4 -80 -10z"/>
<path d="M5250 3559 c0 -5 36 -9 80 -9 44 0 80 4 80 8 0 5 -36 9 -80 10 -44 0
-80 -4 -80 -9z"/>
<path d="M697 2533 c-4 -3 -7 -17 -7 -30 0 -18 -5 -23 -25 -23 -14 0 -25 -4
-25 -10 0 -5 11 -10 25 -10 24 0 25 -2 27 -82 l2 -83 3 83 c4 80 5 82 28 82
14 0 25 5 25 10 0 6 -12 10 -26 10 -21 0 -25 4 -22 22 2 16 12 25 33 29 l30 7
-31 1 c-17 0 -34 -2 -37 -6z"/>
<path d="M782 2390 c1 -92 1 -93 7 -29 7 74 26 105 70 112 24 4 24 4 -4 6 -17
0 -37 -5 -43 -11 -10 -10 -15 -10 -22 2 -7 10 -9 -17 -8 -80z"/>
<path d="M912 2457 c-16 -17 -22 -36 -22 -70 0 -59 25 -87 75 -87 22 0 43 8
55 20 22 22 26 40 10 40 -5 0 -10 -7 -10 -15 0 -35 -69 -46 -100 -15 -38 38
-27 50 50 50 64 0 70 2 70 21 0 23 -18 60 -34 71 -23 16 -73 8 -94 -15z m98
-9 c35 -38 26 -48 -45 -48 -71 0 -79 9 -43 47 27 29 61 29 88 1z"/>
<path d="M1085 2455 c-32 -31 -34 -91 -4 -129 35 -45 129 -28 129 24 0 7 -9 1
-21 -14 -13 -17 -30 -26 -49 -26 -27 0 -70 38 -70 61 0 5 34 9 76 9 l77 0 -7
33 c-13 65 -85 89 -131 42z m92 0 c11 -8 23 -24 26 -35 5 -19 1 -20 -64 -20
-76 0 -83 7 -44 45 28 29 51 31 82 10z"/>
<path d="M1370 2466 c-25 -31 -8 -60 44 -77 57 -19 74 -40 50 -63 -24 -25 -69
-20 -93 10 -13 17 -21 21 -21 12 0 -42 91 -66 124 -32 33 32 10 67 -55 84 -46
13 -61 37 -34 56 27 20 51 17 75 -8 11 -12 20 -17 20 -11 0 37 -84 59 -110 29z"/>
<path d="M1550 2471 c-8 -6 -18 -7 -22 -5 -4 3 -7 -48 -6 -113 0 -72 3 -102 7
-76 5 35 9 41 21 33 24 -16 76 -11 93 8 37 42 26 139 -18 156 -24 9 -58 7 -75
-3z m80 -19 c30 -24 33 -91 6 -121 -25 -28 -70 -27 -90 1 -23 32 -20 94 4 118
25 25 51 25 80 2z"/>
<path d="M1722 2464 c-12 -8 -22 -20 -22 -25 0 -6 12 -1 26 10 33 26 58 27 84
1 34 -34 25 -47 -35 -52 -59 -5 -69 -10 -79 -44 -14 -46 63 -73 111 -39 20 14
22 13 26 -2 3 -10 5 14 6 52 1 86 -14 115 -62 115 -18 0 -43 -7 -55 -16z m108
-89 c0 -9 -11 -27 -25 -41 -36 -36 -89 -31 -93 9 -4 32 20 45 81 46 27 1 37
-3 37 -14z"/>
<path d="M1908 2469 c-37 -21 -44 -113 -10 -151 32 -37 122 -13 122 32 0 7 -9
1 -21 -14 -43 -55 -109 -23 -109 52 0 76 67 110 109 56 13 -17 21 -21 21 -12
0 38 -70 62 -112 37z"/>
<path d="M2072 2457 c-16 -17 -22 -36 -22 -70 0 -59 25 -87 75 -87 22 0 43 8
55 20 22 22 26 40 10 40 -5 0 -10 -7 -10 -15 0 -35 -69 -46 -100 -15 -38 38
-27 50 50 50 64 0 70 2 70 21 0 23 -18 60 -34 71 -23 16 -73 8 -94 -15z m95
-9 c40 -37 30 -48 -42 -48 -71 0 -79 9 -43 47 27 29 55 29 85 1z"/>
<path d="M563 2073 c26 -2 67 -2 90 0 23 2 2 3 -48 3 -49 0 -68 -1 -42 -3z"/>
<path d="M768 2073 c23 -2 61 -2 85 0 23 2 4 4 -43 4 -47 0 -66 -2 -42 -4z"/>
<path d="M968 2073 c23 -2 61 -2 85 0 23 2 4 4 -43 4 -47 0 -66 -2 -42 -4z"/>
<path d="M1168 2073 c23 -2 61 -2 85 0 23 2 4 4 -43 4 -47 0 -66 -2 -42 -4z"/>
<path d="M1368 2073 c23 -2 61 -2 85 0 23 2 4 4 -43 4 -47 0 -66 -2 -42 -4z"/>
<path d="M1568 2073 c23 -2 61 -2 85 0 23 2 4 4 -43 4 -47 0 -66 -2 -42 -4z"/>
<path d="M1768 2073 c23 -2 61 -2 85 0 23 2 4 4 -43 4 -47 0 -66 -2 -42 -4z"/>
<path d="M1968 2073 c23 -2 61 -2 85 0 23 2 4 4 -43 4 -47 0 -66 -2 -42 -4z"/>
<path d="M2168 2073 c23 -2 61 -2 85 0 23 2 4 4 -43 4 -47 0 -66 -2 -42 -4z"/>
<path d="M2373 2073 c26 -2 67 -2 90 0 23 2 2 3 -48 3 -49 0 -68 -1 -42 -3z"/>
<path d="M2573 2073 c26 -2 67 -2 90 0 23 2 2 3 -48 3 -49 0 -68 -1 -42 -3z"/>
<path d="M2773 2073 c26 -2 67 -2 90 0 23 2 2 3 -48 3 -49 0 -68 -1 -42 -3z"/>
<path d="M2973 2073 c26 -2 67 -2 90 0 23 2 2 3 -48 3 -49 0 -68 -1 -42 -3z"/>
<path d="M3173 2073 c26 -2 67 -2 90 0 23 2 2 3 -48 3 -49 0 -68 -1 -42 -3z"/>
<path d="M3373 2073 c26 -2 67 -2 90 0 23 2 2 3 -48 3 -49 0 -68 -1 -42 -3z"/>
<path d="M3573 2073 c26 -2 67 -2 90 0 23 2 2 3 -48 3 -49 0 -68 -1 -42 -3z"/>
<path d="M3778 2073 c23 -2 61 -2 85 0 23 2 4 4 -43 4 -47 0 -66 -2 -42 -4z"/>
</g>
</svg>
